<svg width="288" height="289" viewBox="0 0 288 289" fill="none" xmlns="http://www.w3.org/2000/svg">
<g clip-path="url(#clip0_2_2642)">
<rect y="0.5" width="288" height="288" rx="10" fill="#2C7DFA"/>
<circle cx="266.5" cy="340" r="135" fill="#3685FF"/>
<circle cx="32.5" r="164" fill="#3685FF"/>
<path d="M119 246H44V165.375H119V246ZM106.5 178.812H56.5V232.562H106.5V178.812Z" fill="white"/>
<path d="M69 219.125H94V192.25H69V219.125ZM44 31H119V111.625H44V31ZM56.5 98.1875H106.5V44.4375H56.5V98.1875Z" fill="white"/>
<path d="M69 84.75H94V57.875H69V84.75ZM169 246V165.375H244V246H169ZM231.5 178.812H181.5V232.562H231.5V178.812Z" fill="white"/>
<path d="M194 219.125H219V192.25H194V219.125ZM69 151.938H44V125.062H81.5V138.5H69V151.938ZM131.5 125.062H156.5V98.1875H131.5V125.062ZM81.5 151.938H106.5V138.5H81.5V151.938ZM156.5 84.75H131.5V71.3125H144V57.875H156.5V71.3125V84.75ZM119 151.938V138.5H106.5V125.062H131.5V151.938H119ZM144 192.25H156.5V165.375H144V192.25ZM156.5 138.5V125.062H181.5V151.938H144V138.5H156.5ZM131.5 165.375H144V151.938H131.5V165.375ZM156.5 57.875H181.5V31H156.5V57.875ZM131.5 57.875H144V31H131.5V57.875ZM156.5 98.1875H169V84.75H156.5V98.1875ZM156.5 205.688V232.562H144V246H131.5V192.25H144V205.688H156.5ZM194 57.875H206.5V31H194V57.875ZM194 84.75H219V71.3125H194V84.75ZM181.5 71.3125H194V57.875H181.5V71.3125ZM169 84.75H181.5V71.3125H169V84.75ZM219 111.625V98.1875H231.5V84.75H244V111.625H231.5H219ZM231.5 71.3125H219V31H244V57.875H231.5V71.3125ZM169 111.625V98.1875H206.5V125.062H181.5V111.625H169ZM194 151.938V138.5H219V125.062H244V151.938H219H194Z" fill="white"/>
</g>
<defs>
<clipPath id="clip0_2_2642">
<rect y="0.5" width="288" height="288" rx="10" fill="white"/>
</clipPath>
</defs>
</svg>
